Run_20002
nRows=4
nColumns=161

# SIMM Motion File Header:
name Run_20002
datacolumns 161
datarows 4
otherdata 1
range 2.72500000 2.75000000
endheader
time	pelvis_tilt	pelvis_list	pelvis_rotation	pelvis_tx	pelvis_ty	pelvis_tz	hip_flexion_r	hip_adduction_r	hip_rotation_r	knee_angle_r	ankle_angle_r	hip_flexion_l	hip_adduction_l	hip_rotation_l	knee_angle_l	ankle_angle_l	lumbar_extension	lumbar_bending	lumbar_rotation	arm_flex_r	arm_add_r	arm_rot_r	elbow_flex_r	pro_sup_r	arm_flex_l	arm_add_l	arm_rot_l	elbow_flex_l	pro_sup_l	subtalar_angle_r	mtp_angle_r	subtalar_angle_l	mtp_angle_l	wrist_flex_r	wrist_dev_r	wrist_flex_l	wrist_dev_l	LASI_tx	LASI_ty	LASI_tz	RASI_tx	RASI_ty	RASI_tz	LPSI_tx	LPSI_ty	LPSI_tz	RPSI_tx	RPSI_ty	RPSI_tz	RTH1_tx	RTH1_ty	RTH1_tz	RTH3_tx	RTH3_ty	RTH3_tz	LTH1_tx	LTH1_ty	LTH1_tz	LTH2_tx	LTH2_ty	LTH2_tz	LTH3_tx	LTH3_ty	LTH3_tz	RTB1_tx	RTB1_ty	RTB1_tz	RTB2_tx	RTB2_ty	RTB2_tz	RTB3_tx	RTB3_ty	RTB3_tz	LTB1_tx	LTB1_ty	LTB1_tz	LTB2_tx	LTB2_ty	LTB2_tz	LTB3_tx	LTB3_ty	LTB3_tz	RCAL_tx	RCAL_ty	RCAL_tz	RTOE_tx	RTOE_ty	RTOE_tz	RMT5_tx	RMT5_ty	RMT5_tz	LCAL_tx	LCAL_ty	LCAL_tz	LTOE_tx	LTOE_ty	LTOE_tz	LMT5_tx	LMT5_ty	LMT5_tz	LACR_tx	LACR_ty	LACR_tz	RACR_tx	RACR_ty	RACR_tz	CLAV_tx	CLAV_ty	CLAV_tz	C7_tx	C7_ty	C7_tz	RUA1_tx	RUA1_ty	RUA1_tz	RUA2_tx	RUA2_ty	RUA2_tz	RUA3_tx	RUA3_ty	RUA3_tz	RLEL_tx	RLEL_ty	RLEL_tz	RMEL_tx	RMEL_ty	RMEL_tz	LUA1_tx	LUA1_ty	LUA1_tz	LUA2_tx	LUA2_ty	LUA2_tz	LUA3_tx	LUA3_ty	LUA3_tz	LLEL_tx	LLEL_ty	LLEL_tz	LMEL_tx	LMEL_ty	LMEL_tz	RFAsuperior_tx	RFAsuperior_ty	RFAsuperior_tz	RFAradius_tx	RFAradius_ty	RFAradius_tz	RFAulna_tx	RFAulna_ty	RFAulna_tz	LFAsuperior_tx	LFAsuperior_ty	LFAsuperior_tz	LFAradius_tx	LFAradius_ty	LFAradius_tz	LFAulna_tx	LFAulna_ty	LFAulna_tz
      2.72500000	     -5.54374840	     -1.04705641	     -0.63654322	      0.90537686	      1.03325715	     -0.27692622	     -9.39041464	      4.04486301	      8.91884654	    -24.25722662	    -23.70420009	     20.81214040	      3.05823471	     12.74292104	     -5.18832829	      6.30713306	     -3.14989438	      1.65341372	     10.94759703	    -24.46276832	    -24.05608204	      3.57336654	    107.72770398	     98.24231977	    -44.68132800	    -18.48755493	      0.66981937	    108.38256886	    111.93038740	      0.00000000	      0.00000000	      0.00000000	      0.00000000	      0.00000000	      0.00000000	      0.00000000	      0.00000000	      0.91618836	      1.06861780	     -0.39378253	      0.91642226	      1.05417163	     -0.16657812	      0.75862202	      1.10551834	     -0.32688357	      0.75553277	      1.10741974	     -0.23046121	      0.81860783	      0.89990204	     -0.10362981	      0.74768577	      0.64662556	     -0.14459551	      0.89683718	      0.87921023	     -0.45106576	      0.97030912	      0.78082825	     -0.42481606	      0.92383547	      0.65677768	     -0.39901704	      0.67494382	      0.41874102	     -0.20588881	      0.61119331	      0.39675281	     -0.13946833	      0.58585043	      0.33091293	     -0.20208552	      1.01413496	      0.45018668	     -0.31493861	      0.98811753	      0.36951108	     -0.38898475	      1.02893617	      0.28242385	     -0.31364175	      0.41456624	      0.28711755	     -0.18531075	      0.50937816	      0.11597082	     -0.26402320	      0.48254784	      0.09612999	     -0.17377417	      0.95731504	      0.11497443	     -0.31308705	      1.15402049	      0.17392063	     -0.27978232	      1.15407102	      0.14580312	     -0.36753524	      0.84317002	      1.53583111	     -0.45404609	      0.90915420	      1.52402712	     -0.07988844	      0.94304488	      1.51568661	     -0.25837947	      0.81701667	      1.57133003	     -0.27244762	      0.86838485	      1.39334388	     -0.01889942	      0.79365837	      1.38853176	     -0.01841459	      0.83842952	      1.32015387	      0.02188778	      0.81274628	      1.24991473	      0.03902675	      0.76277355	      1.23194461	     -0.02616530	      0.74232772	      1.44406732	     -0.50541867	      0.67051509	      1.42511519	     -0.47725044	      0.70484812	      1.36434510	     -0.52081903	      0.63185468	      1.31365790	     -0.53177258	      0.60901521	      1.32074804	     -0.44881197	      0.91569700	      1.21436177	     -0.02533707	      0.98342249	      1.19307355	     -0.12522080	      0.98255813	      1.13117941	     -0.09144398	      0.72826695	      1.22776000	     -0.51627840	      0.82591416	      1.19260271	     -0.44104570	      0.80222532	      1.14230283	     -0.48146212
      2.73333300	     -5.13870904	     -1.32924962	     -0.71872391	      0.90575138	      1.03135181	     -0.27693732	     -8.51151138	      4.20645864	      7.72987018	    -27.95534225	    -23.71695706	     20.32440206	      2.91925556	     12.59483083	     -5.13784139	      6.60052317	     -3.64742553	      1.88839882	     10.76490335	    -24.63211165	    -23.82908634	      3.60121993	    107.03797310	     98.18840874	    -44.35232957	    -18.26888943	      0.50982246	    108.40934955	    111.66584312	      0.00000000	      0.00000000	      0.00000000	      0.00000000	      0.00000000	      0.00000000	      0.00000000	      0.00000000	      0.91656773	      1.06603785	     -0.39412729	      0.91658360	      1.05293177	     -0.16576755	      0.75848142	      1.10231540	     -0.32757744	      0.75518321	      1.10486136	     -0.23112903	      0.82073868	      0.89724764	     -0.10403969	      0.75446441	      0.64254024	     -0.14348547	      0.89748266	      0.87454671	     -0.45089507	      0.97014112	      0.77706662	     -0.42488986	      0.92391873	      0.65378839	     -0.39752092	      0.67762724	      0.41655667	     -0.20334666	      0.61266282	      0.39757974	     -0.13749892	      0.58499209	      0.33261029	     -0.19956470	      1.01399718	      0.44784284	     -0.31271682	      0.98908904	      0.36714574	     -0.38703075	      1.02884652	      0.27999193	     -0.31119445	      0.41279670	      0.29611285	     -0.18325876	      0.50107538	      0.12104400	     -0.26077465	      0.47160341	      0.10222168	     -0.17080332	      0.95710336	      0.11233234	     -0.31075392	      1.15382709	      0.17164128	     -0.27770719	      1.15368329	      0.14361998	     -0.36543066	      0.84443754	      1.53334985	     -0.45526936	      0.90859069	      1.52117247	     -0.08058195	      0.94347591	      1.51314854	     -0.25907870	      0.81766828	      1.56909210	     -0.27384112	      0.86684468	      1.39053214	     -0.01995585	      0.79206567	      1.38627666	     -0.01980595	      0.83624229	      1.31741660	      0.02045083	      0.80982598	      1.24768793	      0.03773299	      0.76060433	      1.22986742	     -0.02786374	      0.74358949	      1.44076864	     -0.50674218	      0.67178570	      1.42141067	     -0.47851172	      0.70640749	      1.36083083	     -0.52203868	      0.63382881	      1.30963638	     -0.53256626	      0.61107547	      1.31671203	     -0.44963067	      0.91280672	      1.21034155	     -0.02564414	      0.98112254	      1.18765824	     -0.12489845	      0.97903953	      1.12585466	     -0.09082661	      0.73072904	      1.22426656	     -0.51708964	      0.82871452	      1.18984933	     -0.44201001	      0.80523356	      1.13925594	     -0.48215753
      2.74166700	     -4.66987298	     -1.49646413	     -0.82157831	      0.90599728	      1.02882937	     -0.27673477	     -7.53158757	      4.19453356	      6.52012562	    -31.93059678	    -23.38184780	     19.83506201	      2.91413883	     12.28260127	     -5.52029820	      7.00394658	     -4.25320267	      1.96190469	     10.53988716	    -24.76389388	    -23.50577389	      3.59683842	    106.21383648	     97.94035848	    -43.95891700	    -18.10809049	      0.35440275	    108.42915346	    111.37216745	      0.00000000	      0.00000000	      0.00000000	      0.00000000	      0.00000000	      0.00000000	      0.00000000	      0.00000000	      0.91649391	      1.06284180	     -0.39399682	      0.91691685	      1.05110807	     -0.16399855	      0.75815113	      1.09828645	     -0.32822350	      0.75466375	      1.10140920	     -0.23166208	      0.82333321	      0.89373982	     -0.10418625	      0.76203277	      0.63749051	     -0.14239785	      0.89770441	      0.86966088	     -0.45084742	      0.97012352	      0.77317115	     -0.42499651	      0.92453289	      0.65062660	     -0.39578999	      0.68119450	      0.41386191	     -0.20099014	      0.61489477	      0.39815511	     -0.13564192	      0.58497936	      0.33416796	     -0.19715984	      1.01366408	      0.44454712	     -0.31069995	      0.98897843	      0.36394088	     -0.38511447	      1.02733030	      0.27647518	     -0.30888675	      0.41166031	      0.30505749	     -0.18179622	      0.49395020	      0.12623628	     -0.25709376	      0.46216294	      0.10907164	     -0.16719453	      0.95431650	      0.10890778	     -0.30836636	      1.15137352	      0.16791409	     -0.27577735	      1.15093657	      0.13977095	     -0.36341742	      0.84592629	      1.53015190	     -0.45658865	      0.90798770	      1.51758947	     -0.08123729	      0.94389071	      1.50984572	     -0.25975085	      0.81833789	      1.56616867	     -0.27527219	      0.86503776	      1.38701454	     -0.02110699	      0.79022486	      1.38337927	     -0.02132559	      0.83369577	      1.31390804	      0.01870762	      0.80644235	      1.24477002	      0.03619608	      0.75792250	      1.22716420	     -0.02980607	      0.74523141	      1.43662635	     -0.50825425	      0.67339884	      1.41686410	     -0.48014258	      0.70842904	      1.35643665	     -0.52344362	      0.63625298	      1.30469983	     -0.53363154	      0.61346055	      1.31182538	     -0.45071765	      0.90947690	      1.20540729	     -0.02589353	      0.97863511	      1.18115538	     -0.12403626	      0.97507645	      1.11942659	     -0.08984616	      0.73359598	      1.21979407	     -0.51796671	      0.83182781	      1.18617777	     -0.44292505	      0.80859233	      1.13529398	     -0.48283494
      2.75000000	     -4.19227703	     -1.52638464	     -0.90067672	      0.90608053	      1.02563121	     -0.27655003	     -6.45042646	      4.00654931	      5.43470212	    -36.08201938	    -22.60718700	     19.41401205	      3.08829281	     11.92813819	     -6.33702429	      7.48903577	     -4.90053941	      1.87099477	     10.23019165	    -24.88309419	    -23.10964205	      3.53905034	    105.27429557	     97.49945400	    -43.49495446	    -17.99458974	      0.22291778	    108.42767554	    111.03224705	      0.00000000	      0.00000000	      0.00000000	      0.00000000	      0.00000000	      0.00000000	      0.00000000	      0.00000000	      0.91594751	      1.05899514	     -0.39341136	      0.91735763	      1.04844767	     -0.16198133	      0.75767558	      1.09347843	     -0.32884232	      0.75404945	      1.09705942	     -0.23210404	      0.82632903	      0.88936671	     -0.10424294	      0.77019280	      0.63154998	     -0.14146701	      0.89747424	      0.86486613	     -0.45093827	      0.97037305	      0.76936527	     -0.42507339	      0.92568397	      0.64731068	     -0.39414608	      0.68565469	      0.41082198	     -0.19908602	      0.61794195	      0.39856883	     -0.13394808	      0.58587375	      0.33572217	     -0.19499638	      1.01318674	      0.44034430	     -0.30900643	      0.98770436	      0.35990111	     -0.38334007	      1.02443061	      0.27199771	     -0.30681388	      0.41107105	      0.31387590	     -0.18079109	      0.48816557	      0.13152839	     -0.25288657	      0.45465755	      0.11658232	     -0.16299272	      0.94909669	      0.10502544	     -0.30607077	      1.14669692	      0.16290125	     -0.27379631	      1.14600024	      0.13447466	     -0.36140042	      0.84763569	      1.52620239	     -0.45798847	      0.90732502	      1.51330256	     -0.08188242	      0.94429430	      1.50576662	     -0.26038695	      0.81901279	      1.56253706	     -0.27674442	      0.86297621	      1.38281486	     -0.02235628	      0.78815797	      1.37989129	     -0.02298408	      0.83081041	      1.30967537	      0.01666364	      0.80263233	      1.24119165	      0.03443276	      0.75471776	      1.22386375	     -0.03195877	      0.74725635	      1.43165441	     -0.50992923	      0.67535317	      1.41148989	     -0.48212748	      0.71092077	      1.35116399	     -0.52498259	      0.63912132	      1.29884708	     -0.53496431	      0.61615013	      1.30609282	     -0.45209086	      0.90572752	      1.19963589	     -0.02607516	      0.97593034	      1.17361237	     -0.12261767	      0.97066453	      1.11199038	     -0.08849698	      0.73686045	      1.21438596	     -0.51889536	      0.83527457	      1.18162753	     -0.44378628	      0.81229251	      1.13043659	     -0.48350639
